<?xml version="1.0" standalone="no"?>
<!DOCTYPE svg PUBLIC "-//W3C//DTD SVG 20010904//EN"
 "http://www.w3.org/TR/2001/REC-SVG-20010904/DTD/svg10.dtd">
<svg version="1.0" xmlns="http://www.w3.org/2000/svg"
 width="1280.000000pt" height="1214.000000pt" viewBox="0 0 1280.000000 1214.000000"
 preserveAspectRatio="xMidYMid meet">
<g transform="translate(0.000000,1214.000000) scale(0.100000,-0.100000)"
fill="#000000" stroke="none">
<path d="M5658 12093 c7 -3 16 -2 19 1 4 3 -2 6 -13 5 -11 0 -14 -3 -6 -6z"/>
<path d="M7128 12093 c7 -3 16 -2 19 1 4 3 -2 6 -13 5 -11 0 -14 -3 -6 -6z"/>
<path d="M5580 12083 c-14 -3 -88 -20 -165 -40 -985 -246 -1838 -851 -2402
-1703 -305 -461 -515 -995 -607 -1545 -48 -282 -68 -672 -47 -910 9 -103 9
-131 -1 -141 -7 -7 -84 -48 -171 -93 -1015 -517 -1769 -1468 -2051 -2586 -64
-253 -89 -415 -127 -827 -19 -208 13 -630 72 -928 40 -207 142 -580 155 -568
2 3 -7 58 -21 124 -104 505 -75 1003 86 1487 281 844 926 1498 1768 1791 332
116 650 164 1006 153 685 -22 1306 -271 1829 -735 148 -132 371 -390 457 -528
11 -19 25 -34 30 -34 7 0 223 124 238 136 2 2 -7 39 -20 81 -33 109 -34 292
-1 406 74 257 266 458 525 548 45 16 90 29 100 29 15 0 17 14 17 149 l0 149
-47 6 c-27 3 -77 8 -113 11 -89 8 -278 42 -375 66 -652 165 -1209 538 -1608
1074 -287 386 -458 808 -534 1316 -21 143 -24 545 -5 699 82 656 381 1260 848
1710 206 199 439 366 682 489 173 87 233 113 407 172 127 43 147 55 75 42z"/>
<path d="M7255 12057 c335 -112 592 -247 873 -456 153 -114 413 -371 523 -516
315 -414 502 -857 576 -1360 22 -152 25 -590 5 -735 -50 -352 -141 -644 -297
-947 -342 -665 -936 -1170 -1651 -1403 -214 -70 -420 -111 -676 -135 l-68 -7
0 -144 c0 -107 3 -145 13 -148 161 -43 273 -96 375 -179 121 -98 226 -261 268
-417 25 -92 25 -283 0 -370 -10 -36 -20 -74 -23 -85 -3 -16 16 -32 111 -87 63
-38 119 -68 124 -68 5 0 30 31 55 69 165 248 431 516 703 708 538 380 1226
569 1864 513 562 -50 1059 -243 1515 -588 129 -98 409 -378 506 -507 283 -373
461 -774 547 -1235 35 -183 45 -330 40 -575 -6 -246 -20 -370 -68 -579 -16
-67 -27 -123 -25 -124 5 -5 78 225 109 338 111 417 164 925 132 1275 -32 350
-59 519 -122 770 -282 1122 -1064 2101 -2076 2598 -80 40 -149 78 -152 84 -3
7 0 77 6 155 13 173 5 482 -17 673 -63 544 -236 1078 -494 1530 -565 988
-1490 1686 -2586 1950 -165 40 -206 40 -90 2z"/>
<path d="M6180 9054 c-19 -2 -84 -9 -145 -14 -626 -61 -1262 -313 -1798 -714
-65 -49 -121 -94 -123 -101 -6 -14 71 -157 144 -270 81 -126 185 -257 292
-367 l105 -108 85 66 c274 215 613 389 941 483 252 72 426 96 719 96 352 0
597 -43 919 -161 231 -84 562 -272 756 -429 l70 -56 100 103 c111 114 202 227
292 363 80 119 156 262 150 279 -3 7 -62 55 -131 107 -514 383 -1084 616
-1711 700 -142 19 -573 34 -665 23z"/>
<path d="M2880 6003 c-30 -2 -58 -8 -63 -12 -13 -13 -48 -290 -55 -437 -42
-839 230 -1687 756 -2363 338 -434 762 -781 1252 -1026 151 -76 310 -145 332
-145 36 0 208 324 290 545 27 72 88 278 88 296 0 4 -37 22 -82 40 -190 75
-441 214 -598 330 -358 265 -630 585 -826 974 -254 504 -343 1052 -258 1588 9
54 14 100 12 102 -9 9 -291 75 -383 90 -100 16 -361 27 -465 18z"/>
<path d="M9600 6003 c-107 -10 -270 -39 -388 -69 -75 -19 -137 -36 -139 -38
-2 -2 3 -50 11 -108 41 -274 40 -538 -4 -807 -76 -466 -267 -890 -574 -1271
-80 -100 -291 -309 -396 -394 -197 -158 -458 -313 -679 -402 -58 -24 -107 -48
-109 -54 -6 -18 56 -227 104 -348 76 -193 239 -492 269 -492 21 0 198 76 329
142 1264 631 2054 1935 2013 3322 -5 137 -15 263 -29 361 l-23 150 -65 6 c-68
7 -260 8 -320 2z"/>
<path d="M5658 4822 c-65 -37 -118 -73 -118 -79 0 -7 21 -59 46 -115 177 -393
255 -755 255 -1182 0 -591 -168 -1133 -503 -1622 -132 -192 -327 -407 -516
-565 -221 -185 -574 -388 -849 -488 -898 -326 -1910 -173 -2678 404 -60 46
-162 130 -225 186 -98 88 -108 96 -70 49 80 -98 252 -271 380 -383 639 -561
1423 -905 2256 -992 316 -32 351 -35 431 -35 81 0 125 4 427 35 637 67 1296
305 1790 646 55 38 107 69 116 69 9 0 52 -25 96 -56 248 -174 599 -349 926
-462 328 -113 644 -179 1023 -213 299 -26 336 -25 730 17 831 90 1611 434
2245 991 128 113 290 276 370 373 41 50 35 46 -55 -35 -346 -313 -732 -531
-1148 -651 -1208 -348 -2482 123 -3169 1171 -209 319 -363 713 -423 1084 -9
53 -18 111 -21 130 -13 83 -21 355 -13 494 18 343 100 693 231 982 72 158 74
163 63 174 -6 5 -61 39 -124 76 l-114 66 -66 -64 c-165 -158 -340 -230 -556
-229 -219 1 -417 87 -568 248 -23 24 -44 44 -47 43 -3 0 -58 -30 -122 -67z"/>
</g>
</svg>
